<?xml version="1.0" encoding="UTF-8" standalone="no"?>
<!DOCTYPE svg PUBLIC "-//W3C//DTD SVG 1.1//EN" "http://www.w3.org/Graphics/SVG/1.1/DTD/svg11.dtd">
<svg width="100%" height="100%" viewBox="0 0 58 58" version="1.1" xmlns="http://www.w3.org/2000/svg" xmlns:xlink="http://www.w3.org/1999/xlink" xml:space="preserve" xmlns:serif="http://www.serif.com/" style="fill-rule:evenodd;clip-rule:evenodd;stroke-linejoin:round;stroke-miterlimit:2;">
    <g transform="matrix(1,0,0,1,0,3.5)">
        <path d="M17.046,27.499C18.426,25.774 18.146,23.257 16.421,21.877C14.696,20.497 12.179,20.776 10.799,22.501L1.999,33.501L0,36L1.999,38.499L10.799,49.499C12.179,51.224 14.696,51.504 16.421,50.124C18.146,48.744 18.426,46.227 17.046,44.501L13.445,40L35.123,40C37.332,40 39.123,38.209 39.123,36C39.123,35.916 39.12,35.833 39.115,35.75L28.122,35.75C26.051,35.75 24.373,34.071 24.373,32L13.445,32L17.046,27.499Z" style="fill:rgb(250,93,0);"/>
    </g>
    <g transform="matrix(1,0,0,1,0,3.5)">
        <path d="M40.452,6.447C39.1,4.7 39.421,2.187 41.169,0.836C42.916,-0.515 45.429,-0.194 46.78,1.553L55.287,12.553L57.179,15L55.287,17.447L46.78,28.447C45.429,30.195 42.916,30.516 41.169,29.164C39.421,27.813 39.1,25.301 40.452,23.553L43.973,19L33.873,19C33.873,16.929 32.194,15.25 30.122,15.25L19.13,15.25C19.125,15.168 19.123,15.084 19.123,15C19.123,12.791 20.913,11 23.123,11L43.973,11L40.452,6.447Z" style="fill:rgb(250,93,0);"/>
    </g>
</svg>
